{"title":"EuroTrapped.2013.720p.WEBRip.x264-Fasbet99","uid":8904854,"size":1257385283,"categoryP":"video","categoryS":"hd___movies","magnet":"?xt=urn:btih:9add9f336506d2bf209ae6f694a9e8c1c6cda002&amp;dn=EuroTrapped.2013.720p.WEBRip.x264-Fasbet99&amp;tr=udp%3A%2F%2Ftracker.openbittorrent.com%3A80&amp;tr=udp%3A%2F%2Fopen.demonii.com%3A1337&amp;tr=udp%3A%2F%2Ftracker.coppersurfer.tk%3A6969&amp;tr=udp%3A%2F%2Fexodus.desync.com%3A6969","seeders":0,"leechers":1,"uploader":"Fastbet99","files":4,"time":1378882717,"description":"EuroTrapped (2013)\n\nIMDB Info\t\t\t\t : http://www.imdb.com/title/tt1721672/\n\nSource\t\t\t\t\t : fiend (Thanks)\nComplete name                            : EuroTrapped.2013.720p.WEBRip.x264-Fasbet99.mp4\nFormat                                   : MPEG-4\nFormat profile                           : Base Media\nCodec ID                                 : isom\nFile size                                : 1.17 GiB\nDuration                                 : 1h 43mn\nOverall bit rate mode                    : Variable\nOverall bit rate                         : 1 624 Kbps\n\nVideo\nID                                       : 1\nFormat                                   : AVC\nFormat/Info                              : Advanced Video Codec\nFormat profile                           : &lt;a class=&quot;__cf_email__&quot; href=&quot;/cdn-cgi/l/email-protection&quot; data-cfemail=&quot;85cdece2edc5c9b1abb4&quot;&gt;[email&amp;#160;protected]&lt;/a&gt;&lt;script cf-hash='f9e31' type=&quot;text/javascript&quot;&gt;\n/* &lt;![CDATA[ */!function(){try{var t=&quot;currentScript&quot;in document?document.currentScript:function(){for(var t=document.getElementsByTagName(&quot;script&quot;),e=t.length;e--;)if(t[e].getAttribute(&quot;cf-hash&quot;))return t[e]}();if(t&amp;&amp;t.previousSibling){var e,r,n,i,c=t.previousSibling,a=c.getAttribute(&quot;data-cfemail&quot;);if(a){for(e=&quot;&quot;,r=parseInt(a.substr(0,2),16),n=2;a.length-n;n+=2)i=parseInt(a.substr(n,2),16)^r,e+=String.fromCharCode(i);e=document.createTextNode(e),c.parentNode.replaceChild(e,c)}}}catch(u){}}();/* ]]&gt; */&lt;/script&gt;\nFormat settings, CABAC                   : Yes\nFormat settings, ReFrames                : 4 frames\nCodec ID                                 : avc1\nCodec ID/Info                            : Advanced Video Coding\nDuration                                 : 1h 43mn\nBit rate                                 : 1 525 Kbps\nMaximum bit rate                         : 10.4 Mbps\nWidth                                    : 1 280 pixels\nHeight                                   : 544 pixels\nDisplay aspect ratio                     : 16:9\nFrame rate mode                          : Constant\nFrame rate                               : 23.976 fps\nColor space                              : YUV\nChroma subsampling                       : 4:2:0\nBit depth                                : 8 bits\nScan type                                : Progressive\nBits/(Pixel*Frame)                       : 0.091\nStream size                              : 1.10 GiB (94%)\nWriting library                          : x264 core 133 r2334 a3ac64b\n\nAudio\nID                                       : 2\nFormat                                   : AAC\nFormat/Info                              : Advanced Audio Codec\nFormat profile                           : LC\nCodec ID                                 : 40\nDuration                                 : 1h 43mn\nBit rate mode                            : Variable\nBit rate                                 : 96.0 Kbps\nMaximum bit rate                         : 113 Kbps\nChannel(s)                               : 2 channels\nChannel positions                        : Front: L R\nSampling rate                            : 48.0 KHz\nCompression mode                         : Lossy\nStream size                              : 70.8 MiB (6%)\nLanguage                                 : English\n\nText\nID                                       : 3\nFormat                                   : Timed Text\nCodec ID                                 : tx3g\nDuration                                 : 1h 41mn\nBit rate mode                            : Variable\nBit rate                                 : 73 bps\nStream size                              : 54.8 KiB (0%)\nLanguage                                 : English\nEncoder\t\t\t\t\t : Fastbet99\n\nScreenshots\n &lt;a href=&quot;\nhttp://lookpic.com/O/i2/1553/KM062b7g.jpeg&quot; rel=&quot;nofollow&quot; target=&quot;_NEW&quot;&gt;\nhttp://lookpic.com/O/i2/1553/KM062b7g.jpeg&lt;/a&gt;\n\nStairway To heaven - Help People With Keep Seed As Long You Can","torrent":{"xt":"urn:btih:9add9f336506d2bf209ae6f694a9e8c1c6cda002","amp;dn":"EuroTrapped.2013.720p.WEBRip.x264-Fasbet99","amp;tr":["udp%3A%2F%2Ftracker.openbittorrent.com%3A80","udp%3A%2F%2Fopen.demonii.com%3A1337","udp%3A%2F%2Ftracker.coppersurfer.tk%3A6969","udp%3A%2F%2Fexodus.desync.com%3A6969"],"infoHash":"9add9f336506d2bf209ae6f694a9e8c1c6cda002","infoHashBuffer":{"type":"Buffer","data":[154,221,159,51,101,6,210,191,32,154,230,246,148,169,232,193,198,205,160,2]},"announce":[],"urlList":[]}}